# xmcd
#
# Track frame offsets: 
#        150
#        11292
#        21085
#        32135
#        41295
#        55270
#        67245
#        79390
#        100330
#        111997
#        125250
#        138057
#        152350
#        164492
#        179457
#        194197
#        207122
#
# Disc length: 2938 seconds
#
# Revision: 0
# Processed by: cddbd v1.5.2PL0 Copyright (c) Steve Scherf et al.
# Submitted via: ExactAudioCopy v0.99pb4
#
DISCID=e70b7811
DTITLE=Little Richard - Get Down With It: The OKeh Sessions
DYEAR=2004
DGENRE=R&B
TTITLE0=I Don't Want To Discuss It
TTITLE1=Land Of A Thousand Dances
TTITLE2=The Commandments Of Love
TTITLE3=Money
TTITLE4=Poor Dog (Who Can't Wag His Own Tail)
TTITLE5=I Need Love 
TTITLE6=Never Gonna Let You Go
TTITLE7=Don't Deceive Me
TTITLE8=Function At The Junction
TTITLE9=Well All Right
TTITLE10=Hurry Sundown
TTITLE11=A Little Bit Of Something (Beats A Whole Lot Of Nothing)
TTITLE12=Golden Arrow
TTITLE13=Rocking Chair
TTITLE14=Get Down With It
TTITLE15=Rose Mary
TTITLE16=Hound Dog
EXTD=
EXTT0=
EXTT1=
EXTT2=
EXTT3=
EXTT4=
EXTT5=
EXTT6=
EXTT7=
EXTT8=
EXTT9=
EXTT10=
EXTT11=
EXTT12=
EXTT13=
EXTT14=
EXTT15=
EXTT16=
PLAYORDER=
